<svg width="183" height="84" viewBox="0 0 183 84" fill="none" xmlns="http://www.w3.org/2000/svg">
<path fill-rule="evenodd" clip-rule="evenodd" d="M59.9852 0.906367L182.455 0L169.958 83.3858H47.4883L59.9852 0.906367ZM70.7468 6.82689L170.082 6.09173L134.337 34.8086L134.331 34.8138L116.362 49.4133L98.2779 32.4593L70.7468 6.82689ZM91.9064 34.7251L64.7591 9.45006L55.398 71.2334L91.9064 34.7251ZM96.2934 38.8233L57.7309 77.3858H161.865L135.655 41.4683L116.08 57.3733L96.2934 38.8233ZM140.328 37.6924L165.557 72.2661L174.901 9.91632L140.328 37.6924Z" fill="#3873FF"/>
<path d="M48.7378 5.90511H1.24969L0 10.9039H47.4881L48.7378 5.90511Z" fill="#3873FF"/>
<path d="M8.74774 23.4007H46.2384L44.9887 28.3994H7.49805L8.74774 23.4007Z" fill="#3873FF"/>
<path d="M43.7384 40.8963H16.2453L14.9956 45.895H42.4887L43.7384 40.8963Z" fill="#3873FF"/>
</svg>
