<svg viewBox="0 0 80 80" fill="none" xmlns="http://www.w3.org/2000/svg">
<g>
<circle cx="40" cy="40" r="39" stroke="white" stroke-width="2"/>
<path d="M14.1523 50C14.1523 50.5523 14.6001 51 15.1523 51H16.041C16.5933 51 17.041 50.5523 17.041 50V42.7251C17.041 42.1728 17.4887 41.7251 18.041 41.7251H22.0166C22.5689 41.7251 23.0166 41.2774 23.0166 40.7251V40.0488C23.0166 39.4965 22.5689 39.0488 22.0166 39.0488H18.041C17.4887 39.0488 17.041 38.6011 17.041 38.0488V32.9121C17.041 32.3598 17.4887 31.9121 18.041 31.9121H22.8945C23.4468 31.9121 23.8945 31.4644 23.8945 30.9121V30.25C23.8945 29.6977 23.4468 29.25 22.8945 29.25H15.1523C14.6001 29.25 14.1523 29.6977 14.1523 30.25V50Z" fill="white"/>
<path d="M26.7272 49.9993C26.7269 50.5519 27.1747 51 27.7272 51H28.6152C29.1675 51 29.6152 50.5523 29.6152 50V43.8073C29.6152 42.8051 30.9255 42.4259 31.4607 43.2732L36.047 50.534C36.2302 50.8241 36.5493 51 36.8924 51H37.9756C38.7703 51 39.2475 50.1176 38.8124 49.4526L34.3414 42.618C33.9206 41.9748 34.3571 41.1068 35.0997 40.9082C36.048 40.6547 36.8678 40.2297 37.5591 39.6294C38.6353 38.6948 39.1733 37.3638 39.1733 35.6504V34.7725C39.1733 33.0308 38.6211 31.6714 37.5024 30.7085C36.3838 29.7456 34.9253 29.2642 33.1128 29.2642H27.7401C27.188 29.2642 26.7404 29.7115 26.7401 30.2635L26.7272 49.9993ZM32.8296 31.9263C33.9482 31.9263 34.7979 32.1812 35.3926 32.6768C35.9873 33.1724 36.2847 33.9795 36.2847 35.084V35.3672C36.2847 37.647 35.1377 38.7939 32.8438 38.7939H30.6436C30.0913 38.7939 29.6436 38.3462 29.6436 37.7939V32.936C29.6436 32.3854 30.0886 31.9385 30.6391 31.936L32.8296 31.9263Z" fill="white"/>
<path d="M42.6709 50C42.6709 50.5523 43.1186 51 43.6709 51H51.4131C51.9654 51 52.4131 50.5523 52.4131 50V49.3379C52.4131 48.7856 51.9654 48.3379 51.4131 48.3379H46.5596C46.0073 48.3379 45.5596 47.8902 45.5596 47.3379V42.1445C45.5596 41.5922 46.0073 41.1445 46.5596 41.1445H50.8325C51.3848 41.1445 51.8325 40.6968 51.8325 40.1445V39.4683C51.8325 38.916 51.3848 38.4683 50.8325 38.4683H46.5596C46.0073 38.4683 45.5596 38.0205 45.5596 37.4683V32.9121C45.5596 32.3598 46.0073 31.9121 46.5596 31.9121H51.4131C51.9654 31.9121 52.4131 31.4644 52.4131 30.9121V30.25C52.4131 29.6977 51.9654 29.25 51.4131 29.25H43.6709C43.1186 29.25 42.6709 29.6977 42.6709 30.25V50Z" fill="white"/>
<path d="M55.8398 50C55.8398 50.5523 56.2876 51 56.8398 51H64.582C65.1343 51 65.582 50.5523 65.582 50V49.3379C65.582 48.7856 65.1343 48.3379 64.582 48.3379H59.7285C59.1762 48.3379 58.7285 47.8902 58.7285 47.3379V42.1445C58.7285 41.5922 59.1762 41.1445 59.7285 41.1445H64.0015C64.5537 41.1445 65.0015 40.6968 65.0015 40.1445V39.4683C65.0015 38.916 64.5537 38.4683 64.0015 38.4683H59.7285C59.1762 38.4683 58.7285 38.0205 58.7285 37.4683V32.9121C58.7285 32.3598 59.1762 31.9121 59.7285 31.9121H64.582C65.1343 31.9121 65.582 31.4644 65.582 30.9121V30.25C65.582 29.6977 65.1343 29.25 64.582 29.25H56.8398C56.2876 29.25 55.8398 29.6977 55.8398 30.25V50Z" fill="white"/>
</g>
</svg>
