<svg viewBox="0 0 80 80" fill="none" xmlns="http://www.w3.org/2000/svg">
<g>
<circle cx="40" cy="40" r="39" stroke="white" stroke-width="2"/>
<path d="M39.0469 32.614C39.0469 33.7483 38.8624 34.7665 38.4934 35.6685C38.1381 36.5705 37.6529 37.3427 37.0379 37.985C36.4229 38.6137 35.7122 39.0988 34.9059 39.4405C34.0996 39.7685 33.2522 39.9325 32.3639 39.9325C31.4072 39.9325 30.5189 39.7685 29.6989 39.4405C28.8926 39.0988 28.1887 38.6137 27.5874 37.985C26.9997 37.3427 26.5351 36.5705 26.1934 35.6685C25.8517 34.7665 25.6809 33.7483 25.6809 32.614C25.6809 31.4523 25.8517 30.4137 26.1934 29.498C26.5351 28.5687 26.9997 27.7897 27.5874 27.161C28.1887 26.5187 28.8926 26.0267 29.6989 25.685C30.5189 25.3433 31.4072 25.1725 32.3639 25.1725C33.3206 25.1725 34.2021 25.3433 35.0084 25.685C35.8284 26.0267 36.5322 26.5187 37.1199 27.161C37.7212 27.7897 38.1927 28.5687 38.5344 29.498C38.8761 30.4137 39.0469 31.4523 39.0469 32.614ZM35.6439 32.614C35.6439 31.7803 35.5551 31.0765 35.3774 30.5025C35.2134 29.9148 34.9811 29.4433 34.6804 29.088C34.3934 28.719 34.0449 28.4593 33.6349 28.309C33.2386 28.145 32.8149 28.063 32.3639 28.063C31.8992 28.063 31.4687 28.145 31.0724 28.309C30.6761 28.4593 30.3344 28.719 30.0474 29.088C29.7604 29.4433 29.5349 29.9148 29.3709 30.5025C29.2069 31.0765 29.1249 31.7803 29.1249 32.614C29.1249 33.434 29.2069 34.1242 29.3709 34.6845C29.5349 35.2448 29.7604 35.7027 30.0474 36.058C30.3344 36.3997 30.6761 36.6457 31.0724 36.796C31.4687 36.9463 31.8992 37.0215 32.3639 37.0215C32.8149 37.0215 33.2386 36.9463 33.6349 36.796C34.0449 36.6457 34.3934 36.3997 34.6804 36.058C34.9811 35.7027 35.2134 35.2448 35.3774 34.6845C35.5551 34.1242 35.6439 33.434 35.6439 32.614ZM49.1739 26.1975C49.3242 26.0062 49.5019 25.8422 49.7069 25.7055C49.9256 25.5552 50.2262 25.48 50.6089 25.48C51.9157 25.48 52.6601 26.9736 51.8733 28.017L32.0359 54.3235C31.8856 54.5148 31.7011 54.6788 31.4824 54.8155C31.2637 54.9385 30.9972 55 30.6829 55C29.335 55 28.5679 53.4587 29.3807 52.3834L49.1739 26.1975ZM55.5699 48.0505C55.5699 49.1848 55.3854 50.203 55.0164 51.105C54.6474 52.007 54.1554 52.7723 53.5404 53.401C52.9254 54.0297 52.2147 54.5148 51.4084 54.8565C50.6021 55.1845 49.7547 55.3485 48.8664 55.3485C47.9097 55.3485 47.0214 55.1845 46.2014 54.8565C45.3951 54.5148 44.6912 54.0297 44.0899 53.401C43.5022 52.7723 43.0376 52.007 42.6959 51.105C42.3679 50.203 42.2039 49.1848 42.2039 48.0505C42.2039 46.8888 42.3679 45.8502 42.6959 44.9345C43.0376 44.0052 43.5022 43.2193 44.0899 42.577C44.6912 41.9347 45.3951 41.4495 46.2014 41.1215C47.0214 40.7798 47.9097 40.609 48.8664 40.609C49.8231 40.609 50.7114 40.7798 51.5314 41.1215C52.3514 41.4495 53.0552 41.9347 53.6429 42.577C54.2442 43.2193 54.7157 44.0052 55.0574 44.9345C55.3991 45.8502 55.5699 46.8888 55.5699 48.0505ZM52.1669 48.0505C52.1669 47.2168 52.0781 46.513 51.9004 45.939C51.7364 45.3513 51.5041 44.8798 51.2034 44.5245C50.9027 44.1555 50.5474 43.8958 50.1374 43.7455C49.7411 43.5815 49.3174 43.4995 48.8664 43.4995C48.4154 43.4995 47.9917 43.5815 47.5954 43.7455C47.1991 43.8958 46.8506 44.1555 46.5499 44.5245C46.2629 44.8798 46.0374 45.3513 45.8734 45.939C45.7094 46.513 45.6274 47.2168 45.6274 48.0505C45.6274 48.8705 45.7094 49.5607 45.8734 50.121C46.0374 50.6813 46.2629 51.1392 46.5499 51.4945C46.8506 51.8362 47.1991 52.0822 47.5954 52.2325C47.9917 52.3828 48.4154 52.458 48.8664 52.458C49.3174 52.458 49.7411 52.3828 50.1374 52.2325C50.5474 52.0822 50.9027 51.8362 51.2034 51.4945C51.5041 51.1392 51.7364 50.6813 51.9004 50.121C52.0781 49.5607 52.1669 48.8705 52.1669 48.0505Z" fill="white"/>
</g>
</svg>
