<svg width="100%" height="100%" viewBox="0 0 80 80" fill="none" xmlns="http://www.w3.org/2000/svg">
<path fill-rule="evenodd" clip-rule="evenodd" d="M25 41.1328C24.4477 41.1328 24 41.5805 24 42.1328V54.1328C24 54.6851 24.4477 55.1328 25 55.1328H37C37.5523 55.1328 38 54.6851 38 54.1328V42.1328C38 41.5805 37.5523 41.1328 37 41.1328H25ZM26 43.1328V53.1328H36V43.1328H26Z" fill="white"/>
<path fill-rule="evenodd" clip-rule="evenodd" d="M24 26.1328C24 25.5805 24.4477 25.1328 25 25.1328H37C37.5523 25.1328 38 25.5805 38 26.1328V38.1328C38 38.6851 37.5523 39.1328 37 39.1328H25C24.4477 39.1328 24 38.6851 24 38.1328V26.1328ZM26 37.1328V27.1328H36V37.1328H26Z" fill="white"/>
<path fill-rule="evenodd" clip-rule="evenodd" d="M41 41.1328C40.4477 41.1328 40 41.5805 40 42.1328V54.1328C40 54.6851 40.4477 55.1328 41 55.1328H53C53.5523 55.1328 54 54.6851 54 54.1328V42.1328C54 41.5805 53.5523 41.1328 53 41.1328H41ZM42 43.1328V53.1328H52V43.1328H42Z" fill="white"/>
<path fill-rule="evenodd" clip-rule="evenodd" d="M47.1914 17.866C47.4675 17.3877 48.0791 17.2239 48.5574 17.5L59.1336 23.6061C59.6119 23.8823 59.7758 24.4939 59.4996 24.9722L53.3935 35.5483C53.1173 36.0266 52.5057 36.1905 52.0274 35.9144L41.4513 29.8082C40.973 29.5321 40.8091 28.9205 41.0853 28.4422L47.1914 17.866ZM43.3173 28.5762L48.4235 19.732L57.2676 24.8382L52.1614 33.6823L43.3173 28.5762Z" fill="white"/>
<path fill-rule="evenodd" clip-rule="evenodd" d="M40 80C62.0914 80 80 62.0914 80 40C80 17.9086 62.0914 0 40 0C17.9086 0 0 17.9086 0 40C0 62.0914 17.9086 80 40 80ZM40 78C60.9868 78 78 60.9868 78 40C78 19.0132 60.9868 2 40 2C19.0132 2 2 19.0132 2 40C2 60.9868 19.0132 78 40 78Z" fill="white"/>
</svg>
