<svg viewBox="0 0 80 80" fill="none" xmlns="http://www.w3.org/2000/svg">
<g>
<circle cx="40" cy="40" r="39" stroke="white" stroke-width="2"/>
<path fill-rule="evenodd" clip-rule="evenodd" d="M47 40.5C47 47.8607 42.3393 53 37.5 53C32.6607 53 28 47.8607 28 40.5C28 33.1393 32.6607 28 37.5 28C42.3393 28 47 33.1393 47 40.5ZM38 54.9865C37.8342 54.9955 37.6675 55 37.5 55C31.1487 55 26 48.5081 26 40.5C26 32.4919 31.1487 26 37.5 26C37.6675 26 37.8342 26.0045 38 26.0135V26C43.2429 26 47.0398 27.5792 49.5152 30.2781C51.9757 32.9609 53 36.6086 53 40.5C53 44.3914 51.9757 48.0391 49.5152 50.7219C47.0398 53.4208 43.2429 55 38 55V54.9865ZM44.8036 51.7009C46.1209 51.0939 47.1891 50.2991 48.0412 49.37C50.0619 47.1668 51 44.0645 51 40.5C51 36.9355 50.0619 33.8332 48.0412 31.63C47.1891 30.7009 46.1209 29.9061 44.8036 29.2991C47.366 31.9585 49 35.9887 49 40.5C49 45.0113 47.366 49.0415 44.8036 51.7009Z" fill="white"/>
<path d="M40.1715 41.2591L40.172 41.2584C40.7947 40.4769 41.1 39.4064 41.1 38.0588C41.1 36.7265 40.8176 35.694 40.2375 34.9766C39.6616 34.2535 38.7791 33.9 37.6116 33.9H36.1426C35.5351 33.9 35.0426 34.3925 35.0426 35V40.7235H34.7451C34.2784 40.7235 33.9 41.1019 33.9 41.5686C33.9 42.0354 34.2784 42.4137 34.7451 42.4137H35.0426V43.9588H34.6373C34.2301 43.9588 33.9 44.2889 33.9 44.6961C33.9 45.1033 34.2301 45.4333 34.6373 45.4333H35.0426V47.409C35.0426 47.7906 35.352 48.1 35.7336 48.1C36.1152 48.1 36.4246 47.7906 36.4246 47.409V45.4333H37.8543C38.2615 45.4333 38.5916 45.1033 38.5916 44.6961C38.5916 44.2889 38.2615 43.9588 37.8543 43.9588H36.4246V42.4137H37.4278C38.6237 42.4137 39.5441 42.0328 40.1715 41.2591ZM39.0428 40.1602L39.0428 40.1602L39.0421 40.1608C38.6283 40.5315 38.038 40.7235 37.257 40.7235H36.4246V35.5902H37.5066C38.268 35.5902 38.8086 35.8005 39.1509 36.2021C39.4966 36.6076 39.6786 37.2397 39.6786 38.1176C39.6786 39.1281 39.4564 39.7969 39.0428 40.1602Z" fill="white" stroke="white" stroke-width="0.2"/>
</g>
</svg>
