<svg class="lamp lamp_i1" width="100%" height="100%" viewBox="0 0 382 646" fill="none" xmlns="http://www.w3.org/2000/svg">
	<path class="lamp__line" d="M167.527 347.713L167.525 363.866L192.998 352.684L193.005 271.298L202.945 271.299L202.938 352.685L227.167 363.871L227.168 347.718L273.153 213.527C218.981 180.72 156.563 196.951 132.125 209.168L167.527 347.713Z" stroke-width="2" />
	<path class="lamp__line" d="M168.146 363.866L168.142 415.431C162.964 423.715 153.726 444.754 158.198 462.647" stroke-width="2" />
	<path class="lamp__line" d="M226.544 363.871L226.54 415.436C231.716 423.72 240.951 444.761 236.476 462.653" stroke-width="2" />
	<path class="lamp__line" d="M276.858 473.838C276.858 473.838 293.012 461.414 296.741 447.746C290.534 378.785 342.724 329.709 365.662 264.478C375.434 236.688 380.631 215.114 380.632 190.548C380.641 85.8972 295.811 1.05442 191.161 1.04617C86.5099 1.03793 1.66715 85.8674 1.6589 190.518C1.65684 216.748 4.89034 237.428 16.6176 264.45C33.3347 302.97 94.7802 378.77 88.5621 447.73C92.2886 461.398 108.441 473.825 108.441 473.825" stroke="#254A98" stroke-width="2" />
	<path d="M278.723 475.08C239.957 457.682 140.181 458.298 104.146 475.068L113.455 599.322L164.396 639.087C183.779 646.047 206.642 645.302 220.31 639.092L268.151 599.334L278.723 475.08Z" stroke="#254A98" stroke-width="2" />
	<path d="M98.199 499.044C98.361 500.458 100.08 501.452 102.14 501.321L281.46 489.941C281.537 489.936 281.615 489.929 281.692 489.92C283.433 489.72 284.734 488.586 284.597 487.387C284.435 485.972 282.716 484.979 280.656 485.11L101.336 496.49C101.259 496.495 101.181 496.502 101.104 496.511C99.3622 496.71 98.0616 497.844 98.199 499.044Z" fill="#112131" stroke="#254A98" stroke-width="2" />
	<path d="M102.139 523.445C102.301 524.859 103.953 525.86 105.926 525.739L277.662 515.227C277.736 515.223 277.811 515.216 277.885 515.208C279.552 515.017 280.793 513.89 280.655 512.69C280.493 511.276 278.842 510.275 276.869 510.395L105.133 520.907C105.058 520.912 104.984 520.918 104.91 520.927C103.243 521.118 102.002 522.245 102.139 523.445Z" fill="#112131" stroke="#254A98" stroke-width="2" />
	<path d="M102.136 548.294C102.298 549.708 103.95 550.709 105.922 550.588L277.659 540.076C277.733 540.072 277.807 540.065 277.881 540.057C279.549 539.866 280.789 538.738 280.652 537.539C280.49 536.124 278.838 535.123 276.865 535.244L105.129 545.756C105.055 545.761 104.981 545.767 104.907 545.776C103.239 545.966 101.999 547.094 102.136 548.294Z" fill="#112131" stroke="#254A98" stroke-width="2" />
	<path d="M102.135 573.145C102.297 574.56 103.948 575.561 105.921 575.44L277.657 564.928C277.732 564.924 277.806 564.917 277.88 564.909C279.547 564.718 280.788 563.59 280.651 562.391C280.489 560.976 278.837 559.975 276.864 560.096L105.128 570.608C105.054 570.612 104.979 570.619 104.905 570.627C103.238 570.818 101.997 571.946 102.135 573.145Z" fill="#112131" stroke="#254A98" stroke-width="2" />
	<path d="M102.133 597.997C102.295 599.411 103.947 600.412 105.92 600.292L277.656 589.78C277.73 589.775 277.804 589.769 277.878 589.76C279.546 589.569 280.787 588.442 280.649 587.242C280.487 585.828 278.836 584.827 276.863 584.948L105.126 595.459C105.052 595.464 104.978 595.471 104.904 595.479C103.236 595.67 101.996 596.797 102.133 597.997Z" fill="#112131" stroke="#254A98" stroke-width="2" /> </svg>
<svg class="lamp lamp_i2" width="100%" height="100%" viewBox="0 0 490 696" fill="none" xmlns="http://www.w3.org/2000/svg">
	<g filter="url(#filter0_dd)">
		<path d="M221.529 397.713V413.866L247.001 402.683V321.297H256.941V402.683L281.17 413.866V397.713L327.144 263.52C272.97 230.717 210.553 246.952 186.116 259.171L221.529 397.713Z" stroke="#F4E850" stroke-width="2"></path>
	</g>
	<g filter="url(#filter1_dd)">
		<path d="M222.15 413.867V465.432C216.972 473.716 207.736 494.756 212.209 512.649" stroke="#F4E850" stroke-width="2"></path>
	</g>
	<g filter="url(#filter2_dd)">
		<path d="M280.547 413.867V465.432C285.725 473.716 294.961 494.756 290.488 512.649" stroke="#F4E850" stroke-width="2"></path>
	</g>
	<g filter="url(#filter3_dd)">
		<path d="M330.87 523.83C330.87 523.83 347.023 511.405 350.751 497.737C344.538 428.776 396.725 379.696 419.658 314.463C429.427 286.673 434.622 265.098 434.622 240.532C434.622 135.881 349.786 51.0449 245.135 51.0449C140.485 51.0449 55.6487 135.881 55.6487 240.532C55.6487 266.761 58.8838 287.441 70.6132 314.463C87.3334 352.981 148.785 428.776 142.572 497.737C146.3 511.405 162.453 523.83 162.453 523.83" stroke="#F4E850" stroke-width="2"></path>
	</g>
	<defs>
		<filter id="filter0_dd" x="150.948" y="213.182" width="211.404" height="240.248" filterUnits="userSpaceOnUse" color-interpolation-filters="sRGB">
			<feFlood flood-opacity="0" result="BackgroundImageFix"></feFlood>
			<feColorMatrix in="SourceAlpha" type="matrix" values="127" data-filter-workaround></feColorMatrix>
			<feOffset dy="4"></feOffset>
			<feGaussianBlur stdDeviation="17"></feGaussianBlur>
			<feColorMatrix type="matrix" values="0 0 0 0 0.956863 0 0 0 0 0.909804 0 0 0 0 0.313726 0 0 0 1 0"></feColorMatrix>
			<feBlend mode="normal" in2="BackgroundImageFix" result="effect1_dropShadow"></feBlend>
			<feColorMatrix in="SourceAlpha" type="matrix" values="127" data-filter-workaround></feColorMatrix>
			<feOffset dy="4"></feOffset>
			<feGaussianBlur stdDeviation="17"></feGaussianBlur>
			<feColorMatrix type="matrix" values="0 0 0 0 0.956863 0 0 0 0 0.909804 0 0 0 0 0.313726 0 0 0 1 0"></feColorMatrix>
			<feBlend mode="normal" in2="effect1_dropShadow" result="effect2_dropShadow"></feBlend>
			<feBlend mode="normal" in="SourceGraphic" in2="effect2_dropShadow" result="shape"></feBlend>
		</filter>
		<filter id="filter1_dd" x="176.022" y="383.867" width="81.1278" height="167.024" filterUnits="userSpaceOnUse" color-interpolation-filters="sRGB">
			<feFlood flood-opacity="0" result="BackgroundImageFix"></feFlood>
			<feColorMatrix in="SourceAlpha" type="matrix" values="127" data-filter-workaround></feColorMatrix>
			<feOffset dy="4"></feOffset>
			<feGaussianBlur stdDeviation="17"></feGaussianBlur>
			<feColorMatrix type="matrix" values="0 0 0 0 0.956863 0 0 0 0 0.909804 0 0 0 0 0.313726 0 0 0 1 0"></feColorMatrix>
			<feBlend mode="normal" in2="BackgroundImageFix" result="effect1_dropShadow"></feBlend>
			<feColorMatrix in="SourceAlpha" type="matrix" values="127" data-filter-workaround></feColorMatrix>
			<feOffset dy="4"></feOffset>
			<feGaussianBlur stdDeviation="17"></feGaussianBlur>
			<feColorMatrix type="matrix" values="0 0 0 0 0.956863 0 0 0 0 0.909804 0 0 0 0 0.313726 0 0 0 1 0"></feColorMatrix>
			<feBlend mode="normal" in2="effect1_dropShadow" result="effect2_dropShadow"></feBlend>
			<feBlend mode="normal" in="SourceGraphic" in2="effect2_dropShadow" result="shape"></feBlend>
		</filter>
		<filter id="filter2_dd" x="245.547" y="383.867" width="81.1278" height="167.024" filterUnits="userSpaceOnUse" color-interpolation-filters="sRGB">
			<feFlood flood-opacity="0" result="BackgroundImageFix"></feFlood>
			<feColorMatrix in="SourceAlpha" type="matrix" values="127" data-filter-workaround></feColorMatrix>
			<feOffset dy="4"></feOffset>
			<feGaussianBlur stdDeviation="17"></feGaussianBlur>
			<feColorMatrix type="matrix" values="0 0 0 0 0.956863 0 0 0 0 0.909804 0 0 0 0 0.313726 0 0 0 1 0"></feColorMatrix>
			<feBlend mode="normal" in2="BackgroundImageFix" result="effect1_dropShadow"></feBlend>
			<feColorMatrix in="SourceAlpha" type="matrix" values="127" data-filter-workaround></feColorMatrix>
			<feOffset dy="4"></feOffset>
			<feGaussianBlur stdDeviation="17"></feGaussianBlur>
			<feColorMatrix type="matrix" values="0 0 0 0 0.956863 0 0 0 0 0.909804 0 0 0 0 0.313726 0 0 0 1 0"></feColorMatrix>
			<feBlend mode="normal" in2="effect1_dropShadow" result="effect2_dropShadow"></feBlend>
			<feBlend mode="normal" in="SourceGraphic" in2="effect2_dropShadow" result="shape"></feBlend>
		</filter>
		<filter id="filter3_dd" x="0.648682" y="0.0449219" width="488.974" height="582.577" filterUnits="userSpaceOnUse" color-interpolation-filters="sRGB">
			<feFlood flood-opacity="0" result="BackgroundImageFix"></feFlood>
			<feColorMatrix in="SourceAlpha" type="matrix" values="127" data-filter-workaround></feColorMatrix>
			<feOffset dy="4"></feOffset>
			<feGaussianBlur stdDeviation="27"></feGaussianBlur>
			<feColorMatrix type="matrix" values="0 0 0 0 0.956863 0 0 0 0 0.909804 0 0 0 0 0.313726 0 0 0 1 0"></feColorMatrix>
			<feBlend mode="normal" in2="BackgroundImageFix" result="effect1_dropShadow"></feBlend>
			<feColorMatrix in="SourceAlpha" type="matrix" values="127" data-filter-workaround></feColorMatrix>
			<feOffset dy="4"></feOffset>
			<feGaussianBlur stdDeviation="27"></feGaussianBlur>
			<feColorMatrix type="matrix" values="0 0 0 0 0.956863 0 0 0 0 0.909804 0 0 0 0 0.313726 0 0 0 1 0"></feColorMatrix>
			<feBlend mode="normal" in2="effect1_dropShadow" result="effect2_dropShadow"></feBlend>
			<feBlend mode="normal" in="SourceGraphic" in2="effect2_dropShadow" result="shape"></feBlend>
		</filter>
	</defs>
</svg>
<svg class="lamp lamp_i3" width="100%" height="100%" viewBox="0 0 630 766" fill="none" xmlns="http://www.w3.org/2000/svg">
	<g filter="url(#filter0_d)">
		<path d="M291.528 467.715V483.868L317 472.685V391.299H326.941V472.685L351.17 483.868V467.715L397.144 333.522C342.969 300.719 280.553 316.954 256.116 329.173L291.528 467.715Z" stroke="#F4E850" stroke-width="2"></path>
	</g>
	<g filter="url(#filter1_d)">
		<path d="M292.149 483.869V535.434C286.972 543.718 277.736 564.758 282.209 582.651" stroke="#F4E850" stroke-width="2"></path>
	</g>
	<g filter="url(#filter2_d)">
		<path d="M350.547 483.869V535.434C355.724 543.718 364.96 564.758 360.487 582.651" stroke="#F4E850" stroke-width="2"></path>
	</g>
	<g filter="url(#filter3_dddd)">
		<path d="M400.87 593.832C400.87 593.832 417.023 581.407 420.751 567.739C414.538 498.778 466.725 449.698 489.657 384.465C499.427 356.674 504.622 335.1 504.622 310.534C504.622 205.883 419.786 121.047 315.135 121.047C210.485 121.047 125.648 205.883 125.648 310.534C125.648 336.763 128.884 357.443 140.613 384.465C157.333 422.983 218.785 498.778 212.572 567.739C216.299 581.407 232.452 593.832 232.452 593.832" stroke="#F4E850" stroke-width="2"></path>
	</g>
	<defs>
		<filter id="filter0_d" x="230.948" y="293.184" width="191.404" height="220.248" filterUnits="userSpaceOnUse" color-interpolation-filters="sRGB">
			<feFlood flood-opacity="0" result="BackgroundImageFix"></feFlood>
			<feColorMatrix in="SourceAlpha" type="matrix" values="127" data-filter-workaround></feColorMatrix>
			<feOffset dy="4"></feOffset>
			<feGaussianBlur stdDeviation="12"></feGaussianBlur>
			<feColorMatrix type="matrix" values="0 0 0 0 0.956863 0 0 0 0 0.909804 0 0 0 0 0.313726 0 0 0 1 0"></feColorMatrix>
			<feBlend mode="normal" in2="BackgroundImageFix" result="effect1_dropShadow"></feBlend>
			<feBlend mode="normal" in="SourceGraphic" in2="effect1_dropShadow" result="shape"></feBlend>
		</filter>
		<filter id="filter1_d" x="256.021" y="463.869" width="61.1278" height="147.024" filterUnits="userSpaceOnUse" color-interpolation-filters="sRGB">
			<feFlood flood-opacity="0" result="BackgroundImageFix"></feFlood>
			<feColorMatrix in="SourceAlpha" type="matrix" values="127" data-filter-workaround></feColorMatrix>
			<feOffset dy="4"></feOffset>
			<feGaussianBlur stdDeviation="12"></feGaussianBlur>
			<feColorMatrix type="matrix" values="0 0 0 0 0.956863 0 0 0 0 0.909804 0 0 0 0 0.313726 0 0 0 1 0"></feColorMatrix>
			<feBlend mode="normal" in2="BackgroundImageFix" result="effect1_dropShadow"></feBlend>
			<feBlend mode="normal" in="SourceGraphic" in2="effect1_dropShadow" result="shape"></feBlend>
		</filter>
		<filter id="filter2_d" x="325.547" y="463.869" width="61.1278" height="147.024" filterUnits="userSpaceOnUse" color-interpolation-filters="sRGB">
			<feFlood flood-opacity="0" result="BackgroundImageFix"></feFlood>
			<feColorMatrix in="SourceAlpha" type="matrix" values="127" data-filter-workaround></feColorMatrix>
			<feOffset dy="4"></feOffset>
			<feGaussianBlur stdDeviation="12"></feGaussianBlur>
			<feColorMatrix type="matrix" values="0 0 0 0 0.956863 0 0 0 0 0.909804 0 0 0 0 0.313726 0 0 0 1 0"></feColorMatrix>
			<feBlend mode="normal" in2="BackgroundImageFix" result="effect1_dropShadow"></feBlend>
			<feBlend mode="normal" in="SourceGraphic" in2="effect1_dropShadow" result="shape"></feBlend>
		</filter>
		<filter id="filter3_dddd" x="0.648438" y="0.046875" width="628.974" height="722.577" filterUnits="userSpaceOnUse" color-interpolation-filters="sRGB">
			<feFlood flood-opacity="0" result="BackgroundImageFix"></feFlood>
			<feColorMatrix in="SourceAlpha" type="matrix" values="127" data-filter-workaround></feColorMatrix>
			<feOffset dy="4"></feOffset>
			<feGaussianBlur stdDeviation="27"></feGaussianBlur>
			<feColorMatrix type="matrix" values="0 0 0 0 0.956863 0 0 0 0 0.909804 0 0 0 0 0.313726 0 0 0 1 0"></feColorMatrix>
			<feBlend mode="normal" in2="BackgroundImageFix" result="effect1_dropShadow"></feBlend>
			<feColorMatrix in="SourceAlpha" type="matrix" values="127" data-filter-workaround></feColorMatrix>
			<feOffset dy="4"></feOffset>
			<feGaussianBlur stdDeviation="42"></feGaussianBlur>
			<feColorMatrix type="matrix" values="0 0 0 0 0.956863 0 0 0 0 0.909804 0 0 0 0 0.313726 0 0 0 1 0"></feColorMatrix>
			<feBlend mode="normal" in2="effect1_dropShadow" result="effect2_dropShadow"></feBlend>
			<feColorMatrix in="SourceAlpha" type="matrix" values="127" data-filter-workaround></feColorMatrix>
			<feOffset dy="4"></feOffset>
			<feGaussianBlur stdDeviation="62"></feGaussianBlur>
			<feColorMatrix type="matrix" values="0 0 0 0 0.956863 0 0 0 0 0.909804 0 0 0 0 0.313726 0 0 0 1 0"></feColorMatrix>
			<feBlend mode="normal" in2="effect2_dropShadow" result="effect3_dropShadow"></feBlend>
			<feColorMatrix in="SourceAlpha" type="matrix" values="127" data-filter-workaround></feColorMatrix>
			<feOffset dy="4"></feOffset>
			<feGaussianBlur stdDeviation="62"></feGaussianBlur>
			<feColorMatrix type="matrix" values="0 0 0 0 0.956863 0 0 0 0 0.909804 0 0 0 0 0.313726 0 0 0 1 0"></feColorMatrix>
			<feBlend mode="normal" in2="effect3_dropShadow" result="effect4_dropShadow"></feBlend>
			<feBlend mode="normal" in="SourceGraphic" in2="effect4_dropShadow" result="shape"></feBlend>
		</filter>
	</defs>
</svg>
