<svg width="100%" height="100%" viewBox="0 0 414 205" fill="none" xmlns="http://www.w3.org/2000/svg">
<g id="Counter-Mini">
<text class="counter-text" fill="#254A98" xml:space="preserve" font-size="22" letter-spacing="0.25em" textLength="103">
  <tspan class="js-number-counter" x="153" y="96.514">000000</tspan>
</text>
<g id="Counter-Mini_2">
<path fill-rule="evenodd" clip-rule="evenodd" d="M171.015 39.2059C171.015 36.1931 173.454 33.7485 176.466 33.7485H221.854L225.488 44.6632H176.466C173.454 44.6632 171.015 42.2187 171.015 39.2059ZM176.466 35.7485C174.561 35.7485 173.015 37.2952 173.015 39.2059C173.015 41.1165 174.561 42.6632 176.466 42.6632H222.714L220.412 35.7485H176.466Z" fill="#254A98"/>
<path fill-rule="evenodd" clip-rule="evenodd" d="M223.064 33.8589H238.789C241.589 33.8589 243.605 36.454 243.605 39.3167C243.605 42.1794 241.589 44.7745 238.789 44.7745H226.933L223.064 33.8589ZM225.895 35.8589L228.346 42.7745H238.789C240.204 42.7745 241.605 41.3779 241.605 39.3167C241.605 37.2554 240.204 35.8589 238.789 35.8589H225.895Z" fill="#254A98"/>
<path fill-rule="evenodd" clip-rule="evenodd" d="M151 71.5005C148.791 71.5005 147 73.2914 147 75.5005V100.5C147 102.71 148.791 104.5 151 104.5H258C260.209 104.5 262 102.71 262 100.5V75.5005C262 73.2914 260.209 71.5005 258 71.5005H151ZM148.742 77.2373C148.742 75.0282 150.533 73.2373 152.742 73.2373H256.258C258.467 73.2373 260.258 75.0282 260.258 77.2373V98.7636C260.258 100.973 258.467 102.764 256.258 102.764H152.742C150.533 102.764 148.742 100.973 148.742 98.7636V77.2373Z" fill="#254A98"/>
<path d="M281.502 83.6976C281.41 83.8642 281.349 84.0578 281.317 84.2786L281.73 84.3518C281.836 84.3688 281.919 84.3614 281.977 84.3295C282.035 84.2977 282.082 84.233 282.118 84.1353C282.14 84.0589 282.171 83.9889 282.214 83.9252C282.256 83.8615 282.309 83.8058 282.371 83.758C282.434 83.7103 282.504 83.6731 282.583 83.6466C282.661 83.6201 282.747 83.6068 282.84 83.6068C283.042 83.6068 283.203 83.6631 283.324 83.7756C283.444 83.888 283.505 84.0525 283.505 84.269C283.505 84.3709 283.49 84.4643 283.46 84.5492C283.431 84.6341 283.378 84.7068 283.303 84.7673C283.228 84.8278 283.126 84.875 282.999 84.909C282.872 84.9429 282.712 84.961 282.519 84.9631V85.5235C282.752 85.5235 282.938 85.5415 283.077 85.5776C283.216 85.6137 283.323 85.6635 283.397 85.7272C283.471 85.7909 283.52 85.8678 283.543 85.9581C283.566 86.0483 283.578 86.1485 283.578 86.2589C283.578 86.3459 283.561 86.4324 283.529 86.5184C283.496 86.6044 283.446 86.6824 283.379 86.7524C283.312 86.8224 283.229 86.8792 283.13 86.9227C283.03 86.9663 282.913 86.988 282.78 86.988C282.661 86.988 282.559 86.9705 282.473 86.9355C282.387 86.9005 282.312 86.8548 282.249 86.7986C282.185 86.7423 282.131 86.6781 282.085 86.606C282.039 86.5338 281.998 86.4606 281.959 86.3863C281.923 86.3184 281.866 86.2754 281.786 86.2573C281.707 86.2393 281.621 86.2494 281.53 86.2876L281.184 86.4308C281.247 86.6283 281.323 86.8023 281.413 86.953C281.502 87.1037 281.61 87.231 281.737 87.3351C281.864 87.4391 282.014 87.5176 282.185 87.5706C282.357 87.6237 282.558 87.6502 282.789 87.6502C283.001 87.6502 283.202 87.6195 283.392 87.5579C283.582 87.4964 283.749 87.4056 283.893 87.2857C284.037 87.1658 284.151 87.0177 284.236 86.8416C284.321 86.6654 284.363 86.4627 284.363 86.2334C284.363 85.9639 284.296 85.74 284.16 85.5617C284.024 85.3834 283.819 85.2507 283.543 85.1637C283.657 85.1255 283.76 85.0777 283.851 85.0204C283.943 84.9631 284.019 84.8931 284.08 84.8103C284.142 84.7275 284.189 84.6304 284.222 84.519C284.255 84.4075 284.271 84.2786 284.271 84.1321C284.271 83.9645 284.239 83.8085 284.174 83.6641C284.109 83.5198 284.017 83.394 283.896 83.2868C283.775 83.1797 283.629 83.0958 283.459 83.0353C283.288 82.9748 283.097 82.9446 282.885 82.9446C282.681 82.9446 282.491 82.9727 282.314 83.0289C282.137 83.0852 281.98 83.169 281.843 83.2805C281.707 83.3919 281.593 83.5309 281.502 83.6976Z" fill="#254A98"/>
<path d="M280.617 86.7666V93.9671H279.057V89.9606C279.057 89.7972 279.066 89.6127 279.082 89.4073C279.098 89.2018 279.125 89.0103 279.162 88.8329L277.05 92.7133C276.947 92.9141 276.784 93.0145 276.56 93.0145H276.378C276.154 93.0145 275.991 92.9141 275.888 92.7133L273.748 88.8119C273.781 88.9893 273.807 89.1831 273.828 89.3932C273.849 89.6034 273.86 89.7925 273.86 89.9606V93.9671H272.3V86.7666H273.727C273.848 86.7666 273.968 86.7923 274.087 86.8436C274.206 86.895 274.305 86.9977 274.384 87.1518L276.077 90.1777C276.152 90.3178 276.222 90.4661 276.287 90.6225C276.352 90.7789 276.413 90.9365 276.469 91.0953C276.525 90.9365 276.585 90.7778 276.647 90.619C276.71 90.4602 276.779 90.3132 276.854 90.1777L278.533 87.1518C278.617 86.9931 278.717 86.8892 278.834 86.8401C278.95 86.7911 279.069 86.7666 279.19 86.7666H280.617Z" fill="#254A98"/>
<path d="M204.448 134.062C204.39 129.725 209.785 128.37 212.507 130.879V132.522C210.885 131.216 208.308 131.763 208.308 134.094C208.308 136.395 211.041 136.85 212.507 135.625V137.337C209.673 139.792 204.505 138.384 204.448 134.062Z" fill="#254A98"/>
<path d="M211.423 133.211H213.351V133.696H212.703V135.174H212.07V133.696H211.423V133.211Z" fill="#254A98"/>
<path fill-rule="evenodd" clip-rule="evenodd" d="M215.932 129.524L210.898 125.862C209.561 124.889 207.75 124.889 206.413 125.862L201.379 129.524C200.041 130.497 199.482 132.221 199.993 133.795L201.915 139.72C202.426 141.294 203.891 142.36 205.544 142.36H211.766C213.419 142.36 214.884 141.294 215.395 139.72L217.318 133.795C217.829 132.221 217.269 130.497 215.932 129.524ZM207.16 126.892C208.052 126.243 209.259 126.243 210.151 126.892L215.184 130.554C216.076 131.203 216.449 132.352 216.108 133.402L214.186 139.327C213.845 140.376 212.868 141.087 211.766 141.087H205.544C204.442 141.087 203.466 140.376 203.125 139.327L201.202 133.402C200.862 132.352 201.235 131.203 202.126 130.554L207.16 126.892Z" fill="#254A98"/>
<path d="M185.137 140.796H190.456V142.652H189.091V145.136H186.503V142.652H185.137V140.796Z" fill="#254A98"/>
<path fill-rule="evenodd" clip-rule="evenodd" d="M187.709 136.941C186.155 136.005 183.475 134.719 180.471 134.719C175.744 134.719 171.378 137.268 171.378 143.033C171.378 148.799 175.465 151.275 180.224 151.275C183.596 151.275 186.375 149.824 187.709 148.977V145.679C186.739 146.314 184.959 147.281 183.097 147.281C177.805 147.281 178.004 138.844 182.933 138.822C184.782 138.814 186.587 139.626 187.709 140.257V136.941ZM174.677 147.764C173.869 147.764 173.208 147.036 173.208 146.147V141.371C173.208 139.733 174.414 138.404 175.902 138.404C177.389 138.404 178.595 139.733 178.595 141.371C178.595 143.009 177.389 144.337 175.902 144.337C175.663 144.337 175.432 144.303 175.211 144.238V142.476C175.404 142.619 175.636 142.703 175.886 142.703C176.554 142.703 177.096 142.106 177.096 141.371C177.096 140.635 176.554 140.039 175.886 140.039C175.219 140.039 174.677 140.635 174.677 141.371V147.764Z" fill="#254A98"/>
<path fill-rule="evenodd" clip-rule="evenodd" d="M228.612 142.634H228.249V147.181H228.612V147.454C228.612 148.861 229.751 150.002 231.156 150.002H241.331C242.736 150.002 243.875 148.861 243.875 147.454V147.181H244.24V142.634H243.875V137.266C243.875 135.86 242.736 134.719 241.331 134.719H231.156C229.751 134.719 228.612 135.86 228.612 137.266V142.634ZM229.884 137.266C229.884 136.563 230.454 135.993 231.156 135.993H241.331C242.034 135.993 242.603 136.563 242.603 137.266V141.965L240.898 137.696C240.136 135.79 237.44 135.79 236.679 137.696L236.244 138.783L235.81 137.696C235.049 135.79 232.353 135.79 231.591 137.696L229.884 141.969V137.266ZM242.603 147.181V147.454C242.603 148.158 242.034 148.728 241.331 148.728H231.156C230.454 148.728 229.884 148.158 229.884 147.454V147.181H231.157C232.087 147.181 232.922 146.615 233.266 145.752L233.701 144.665L234.135 145.752C234.896 147.658 237.593 147.658 238.354 145.752L238.788 144.665L239.222 145.752C239.567 146.615 240.402 147.181 241.332 147.181H242.603ZM233.448 138.438C233.54 138.209 233.862 138.209 233.953 138.438L236.244 144.174L238.536 138.438C238.627 138.209 238.949 138.209 239.041 138.438L241.516 144.634H242.24V145.181H241.332C241.222 145.181 241.121 145.114 241.08 145.01L238.788 139.274L236.497 145.01C236.405 145.238 236.084 145.238 235.992 145.01L233.701 139.274L231.409 145.01C231.368 145.114 231.267 145.181 231.157 145.181H230.249V144.634H230.973L233.448 138.438Z" fill="#254A98"/>
<path fill-rule="evenodd" clip-rule="evenodd" d="M296.023 98.4245C296.023 147.307 256.446 186.934 207.626 186.934C158.806 186.934 119.229 147.307 119.229 98.4245C119.229 49.5418 158.806 9.91455 207.626 9.91455C256.446 9.91455 296.023 49.5418 296.023 98.4245ZM207.626 184.934C255.339 184.934 294.023 146.205 294.023 98.4245C294.023 50.6439 255.339 11.9146 207.626 11.9146C159.913 11.9146 121.229 50.6439 121.229 98.4245C121.229 146.205 159.913 184.934 207.626 184.934Z" fill="#254A98"/>
<path fill-rule="evenodd" clip-rule="evenodd" d="M104.604 80.8688H110.886C119.155 34.8874 159.321 0 207.627 0C255.93 0 296.093 34.8821 304.366 80.8583L304.555 80.8563L304.619 80.8557C304.736 80.8546 304.864 80.8536 304.999 80.8529C305.777 80.8488 306.833 80.8527 307.938 80.8845C309.04 80.9163 310.208 80.9763 311.207 81.0871C311.706 81.1424 312.179 81.2122 312.588 81.3018C312.976 81.3867 313.391 81.5068 313.72 81.6992C313.918 81.8149 314.109 81.9416 314.291 82.0784H595V144.028H314.337C313.314 144.808 312.036 145.271 310.651 145.271H294.1C284.294 163.38 268.979 178.062 250.406 187.065L251.029 187.544L241.365 200.123C239.25 202.876 235.977 204.49 232.507 204.49H184.456C181.031 204.49 177.303 202.91 175.162 200.123L165.498 187.544L165.632 187.441C146.706 178.474 131.098 163.634 121.155 145.271H104.604C103.218 145.271 101.941 144.808 100.918 144.028H-180.5V82.0784H100.935V82.0992C101.955 81.3269 103.226 80.8688 104.604 80.8688ZM313.585 142.028H313.565V142.048C312.823 142.803 311.791 143.271 310.651 143.271H295.153C302.041 129.822 305.927 114.578 305.927 98.4246C305.927 93.1265 305.509 87.9262 304.704 82.855C304.8 82.8541 304.902 82.8534 305.01 82.8529C305.773 82.8489 306.805 82.8527 307.88 82.8837C308.96 82.9148 310.066 82.9729 310.987 83.0749C311.447 83.126 311.845 83.1864 312.16 83.2555C312.497 83.3293 312.661 83.3966 312.71 83.4251C313.925 84.1366 314.738 85.4549 314.738 86.9629V139.177C314.738 140.286 314.299 141.291 313.585 142.028ZM316.033 142.028H593V84.0784H316.014C316.476 84.9369 316.738 85.9192 316.738 86.9629V139.177C316.738 140.207 316.483 141.177 316.033 142.028ZM99.24 84.0784H-178.5V142.028H99.2218C98.7713 141.177 98.5161 140.207 98.5161 139.177V86.9629C98.5161 85.9195 98.7781 84.9372 99.24 84.0784ZM207.627 2C154.443 2 111.327 45.1696 111.327 98.4246C111.327 151.68 154.443 194.849 207.627 194.849C260.811 194.849 303.927 151.68 303.927 98.4246C303.927 45.1696 260.811 2 207.627 2ZM109.327 98.4246C109.327 93.1314 109.744 87.9357 110.548 82.8688H104.604C102.347 82.8688 100.516 84.7006 100.516 86.9629V139.177C100.516 141.44 102.347 143.271 104.604 143.271H120.101C113.213 129.822 109.327 114.578 109.327 98.4246ZM207.627 196.849C222.022 196.849 235.694 193.751 248.014 188.185L239.779 198.905C238.042 201.166 235.355 202.49 232.507 202.49H184.456C181.563 202.49 178.459 201.132 176.748 198.905L169.16 189.028C180.975 194.063 193.976 196.849 207.627 196.849Z" fill="#254A98"/>
</g>
</g>
</svg>
