<svg width="100%" height="100%" viewBox="0 0 636 417" fill="none" xmlns="http://www.w3.org/2000/svg">
<g id="Counter">
<text xml:space="preserve" font-size="27" letter-spacing="0.25em" textLength="130" class="counter-text">
  <tspan class="js-number-counter" x="220" y="282.449" >000000</tspan>
</text>
<g id="counter">
<path fill-rule="evenodd" clip-rule="evenodd" d="M243.095 211.479C243.095 207.869 246.018 204.94 249.627 204.94H305.856L310.21 218.018H249.627C246.018 218.018 243.095 215.089 243.095 211.479ZM249.627 206.94C247.125 206.94 245.095 208.971 245.095 211.479C245.095 213.987 247.125 216.018 249.627 216.018H307.436L304.414 206.94H249.627Z" fill="#254A98"/>
<path fill-rule="evenodd" clip-rule="evenodd" d="M216 252C213.791 252 212 253.791 212 256V289C212 291.209 213.791 293 216 293H352C354.209 293 356 291.209 356 289V256C356 253.791 354.209 252 352 252H216ZM214.182 258.158C214.182 255.949 215.973 254.158 218.182 254.158H349.818C352.027 254.158 353.818 255.949 353.818 258.158V286.842C353.818 289.051 352.027 290.842 349.818 290.842H218.182C215.973 290.842 214.182 289.051 214.182 286.842V258.158Z" fill="#254A98"/>
<path fill-rule="evenodd" clip-rule="evenodd" d="M312.513 218.156L307.877 205.077H327.075C330.387 205.077 332.817 208.156 332.817 211.616C332.817 215.077 330.387 218.156 327.075 218.156H312.513ZM310.708 207.077L313.926 216.156H327.075C329.002 216.156 330.817 214.275 330.817 211.616C330.817 208.958 329.002 207.077 327.075 207.077H310.708Z" fill="#254A98"/>
<path d="M379.927 267.491C379.966 267.217 380.043 266.976 380.156 266.769C380.269 266.562 380.411 266.389 380.581 266.251C380.751 266.112 380.946 266.008 381.166 265.938C381.385 265.868 381.622 265.833 381.875 265.833C382.138 265.833 382.376 265.871 382.588 265.946C382.8 266.021 382.981 266.126 383.131 266.259C383.281 266.392 383.397 266.548 383.477 266.728C383.557 266.907 383.598 267.101 383.598 267.309C383.598 267.491 383.577 267.652 383.536 267.79C383.496 267.928 383.437 268.049 383.361 268.152C383.284 268.255 383.189 268.342 383.076 268.413C382.963 268.484 382.835 268.544 382.693 268.591C383.035 268.699 383.291 268.864 383.459 269.086C383.628 269.307 383.712 269.586 383.712 269.921C383.712 270.205 383.66 270.457 383.554 270.676C383.449 270.895 383.307 271.079 383.127 271.228C382.948 271.377 382.741 271.49 382.505 271.567C382.269 271.643 382.02 271.681 381.756 271.681C381.469 271.681 381.219 271.648 381.005 271.582C380.792 271.516 380.606 271.419 380.448 271.29C380.29 271.16 380.156 271.002 380.045 270.815C379.935 270.628 379.84 270.411 379.761 270.166L380.191 269.988C380.305 269.94 380.411 269.928 380.51 269.95C380.535 269.956 380.559 269.964 380.581 269.974C380.595 269.98 380.608 269.987 380.62 269.995C380.664 270.023 380.699 270.062 380.725 270.111C380.772 270.203 380.824 270.294 380.881 270.384C380.938 270.473 381.005 270.553 381.084 270.623C381.164 270.693 381.256 270.75 381.363 270.793C381.47 270.837 381.597 270.858 381.744 270.858C381.91 270.858 382.055 270.831 382.179 270.777C382.303 270.723 382.406 270.653 382.489 270.566C382.572 270.478 382.634 270.382 382.675 270.275C382.716 270.168 382.736 270.06 382.736 269.952C382.736 269.815 382.722 269.69 382.693 269.578C382.664 269.466 382.603 269.371 382.511 269.292C382.419 269.212 382.286 269.15 382.114 269.106C381.941 269.061 381.71 269.038 381.42 269.038V268.342C381.66 268.339 381.859 268.317 382.017 268.275C382.175 268.232 382.301 268.174 382.394 268.099C382.488 268.023 382.553 267.933 382.59 267.828C382.627 267.722 382.645 267.606 382.645 267.479C382.645 267.21 382.57 267.006 382.42 266.866C382.27 266.726 382.07 266.656 381.819 266.656C381.782 266.656 381.746 266.658 381.711 266.662C381.669 266.666 381.629 266.672 381.59 266.681C381.576 266.684 381.563 266.687 381.55 266.69C381.54 266.693 381.529 266.696 381.519 266.7L381.499 266.706C381.402 266.739 381.314 266.785 381.237 266.844C381.159 266.904 381.094 266.973 381.041 267.052C380.988 267.131 380.949 267.218 380.922 267.313C380.878 267.435 380.819 267.515 380.747 267.555C380.674 267.594 380.572 267.603 380.44 267.582L379.927 267.491Z" fill="#254A98"/>
<path d="M379.057 279.531V270.583H377.283C377.133 270.583 376.985 270.614 376.84 270.675C376.695 270.736 376.571 270.865 376.466 271.062L374.38 274.822C374.287 274.991 374.202 275.173 374.123 275.371C374.096 275.439 374.07 275.507 374.044 275.574C374.026 275.623 374.007 275.671 373.989 275.72C373.959 275.801 373.93 275.882 373.902 275.963C373.832 275.765 373.757 275.569 373.676 275.375C373.594 275.181 373.508 274.996 373.415 274.822L371.311 271.062C371.213 270.87 371.089 270.743 370.942 270.679C370.794 270.615 370.645 270.583 370.494 270.583H368.72V279.531H370.659V274.552C370.659 274.344 370.646 274.109 370.62 273.847C370.594 273.586 370.561 273.345 370.52 273.125L373.18 277.973C373.308 278.223 373.51 278.348 373.789 278.348H374.015C374.293 278.348 374.496 278.223 374.623 277.973L377.249 273.151C377.202 273.372 377.169 273.609 377.149 273.865C377.128 274.12 377.118 274.349 377.118 274.552V279.531H379.057Z" fill="#254A98"/>
<path d="M284.4 329.357C284.328 323.968 291.033 322.284 294.415 325.403V327.444C292.399 325.821 289.197 326.5 289.197 329.397C289.197 332.257 292.593 332.822 294.415 331.301V333.428C290.893 336.478 284.471 334.729 284.4 329.357Z" fill="#254A98"/>
<path d="M295.463 328.3H293.067V328.903H293.872V330.74H294.659V328.903H295.463V328.3Z" fill="#254A98"/>
<path fill-rule="evenodd" clip-rule="evenodd" d="M298.672 323.718L292.417 319.167C290.755 317.958 288.504 317.958 286.842 319.167L280.587 323.718C278.925 324.927 278.229 327.07 278.864 329.026L281.254 336.389C281.888 338.345 283.709 339.67 285.763 339.67H293.495C295.55 339.67 297.37 338.345 298.005 336.389L300.395 329.026C301.029 327.07 300.334 324.927 298.672 323.718ZM287.771 320.447C288.879 319.641 290.38 319.641 291.487 320.447L297.743 324.998C298.851 325.804 299.314 327.233 298.891 328.537L296.502 335.9C296.079 337.204 294.865 338.087 293.495 338.087H285.763C284.394 338.087 283.18 337.204 282.757 335.9L280.367 328.537C279.944 327.233 280.408 325.804 281.516 324.998L287.771 320.447Z" fill="#254A98"/>
<path d="M267.012 337.726H260.402V340.033H262.099V343.12H265.315V340.033H267.012V337.726Z" fill="#254A98"/>
<path fill-rule="evenodd" clip-rule="evenodd" d="M263.598 332.936C261.667 331.772 258.337 330.175 254.603 330.175C248.729 330.175 243.303 333.342 243.303 340.506C243.303 347.672 248.382 350.749 254.297 350.749C258.487 350.749 261.94 348.945 263.598 347.893V343.795C262.393 344.584 260.18 345.785 257.866 345.785C251.29 345.785 251.537 335.301 257.662 335.273C259.96 335.263 262.203 336.272 263.598 337.057V332.936ZM247.403 346.386C246.399 346.386 245.577 345.481 245.577 344.376V338.441C245.577 336.405 247.076 334.754 248.925 334.754C250.773 334.754 252.272 336.405 252.272 338.441C252.272 340.476 250.773 342.127 248.925 342.127C248.628 342.127 248.341 342.084 248.067 342.004V339.814C248.307 339.992 248.595 340.096 248.906 340.096C249.736 340.096 250.409 339.355 250.409 338.441C250.409 337.526 249.736 336.785 248.906 336.785C248.076 336.785 247.403 337.526 247.403 338.441V346.386Z" fill="#254A98"/>
<path fill-rule="evenodd" clip-rule="evenodd" d="M314.429 340.253H314.22V345.418H314.429V346.001C314.429 347.749 315.845 349.166 317.59 349.166H330.235C331.981 349.166 333.396 347.749 333.396 346.001V345.418H333.607V340.253H333.396V333.34C333.396 331.592 331.981 330.175 330.235 330.175H317.59C315.845 330.175 314.429 331.592 314.429 333.34V340.253ZM316.01 333.34C316.01 332.466 316.717 331.757 317.59 331.757H330.235C331.108 331.757 331.816 332.466 331.816 333.34V339.834L329.471 333.964C328.606 331.799 325.543 331.799 324.678 333.964L323.913 335.879L323.148 333.964C322.283 331.799 319.221 331.799 318.356 333.964L316.01 339.836V333.34ZM331.816 345.418V346.001C331.816 346.875 331.108 347.583 330.235 347.583H317.59C316.717 347.583 316.01 346.875 316.01 346.001V345.418H317.591C318.647 345.418 319.595 344.775 319.987 343.794L320.752 341.879L321.517 343.794C322.382 345.959 325.444 345.959 326.309 343.794L327.074 341.879L327.839 343.794C328.231 344.775 329.18 345.418 330.236 345.418H331.816ZM320.213 334.706C320.408 334.218 321.096 334.218 321.291 334.706L323.913 341.27L326.536 334.706C326.73 334.218 327.419 334.218 327.613 334.706L330.628 342.253H331.607V343.418H330.236C329.999 343.418 329.785 343.274 329.697 343.052L327.074 336.488L324.452 343.052C324.257 343.54 323.569 343.54 323.374 343.052L320.752 336.488L318.13 343.052C318.041 343.274 317.828 343.418 317.591 343.418H316.22V342.253H317.198L320.213 334.706Z" fill="#254A98"/>
<path fill-rule="evenodd" clip-rule="evenodd" d="M398.202 285.071C398.202 345.818 349.019 395.063 288.35 395.063C227.681 395.063 178.499 345.818 178.499 285.071C178.499 224.324 227.681 175.079 288.35 175.079C349.019 175.079 398.202 224.324 398.202 285.071ZM288.35 393.063C347.913 393.063 396.202 344.716 396.202 285.071C396.202 225.426 347.913 177.079 288.35 177.079C228.788 177.079 180.499 225.426 180.499 285.071C180.499 344.716 228.788 393.063 288.35 393.063Z" fill="#254A98"/>
<path fill-rule="evenodd" clip-rule="evenodd" d="M0 -3V264C0 306.802 34.6979 341.5 77.5 341.5H155.825C157.066 342.468 158.627 343.045 160.322 343.045H181.034C193.384 365.914 212.812 384.39 236.379 395.526L236.189 395.672L248.199 411.305C250.807 414.7 255.364 416.637 259.556 416.637H319.269C323.506 416.637 327.502 414.666 330.085 411.305L342.094 395.672L341.297 395.06C364.425 383.878 383.487 365.598 395.666 343.045H416.379C418.075 343.045 419.636 342.468 420.877 341.5H696V339.5H422.651C423.318 338.395 423.702 337.099 423.702 335.715V270.827C423.702 269.424 423.308 268.114 422.626 267H769.5V265H420.823C420.583 264.817 420.332 264.648 420.071 264.495C419.697 264.276 419.211 264.133 418.735 264.029C418.238 263.92 417.659 263.835 417.044 263.766C415.813 263.63 414.368 263.555 413.001 263.516C411.631 263.476 410.322 263.472 409.358 263.477C408.964 263.479 408.627 263.483 408.366 263.486C398.187 206.364 348.327 163 288.35 163C228.369 163 178.507 206.37 168.332 263.497H160.322C158.651 263.497 157.111 264.057 155.879 265H108C91.9837 265 79 252.016 79 236V-3H0ZM154.076 267H108C90.8792 267 77 253.121 77 236V-1H2V264C2 305.698 35.8025 339.5 77.5 339.5H154.051C153.384 338.395 153 337.099 153 335.715V270.827C153 269.425 153.393 268.114 154.076 267ZM160.322 265.497H167.993C166.967 271.87 166.434 278.408 166.434 285.071C166.434 305.246 171.323 324.278 179.978 341.045H160.322C157.384 341.045 155 338.66 155 335.715V270.827C155 267.882 157.384 265.497 160.322 265.497ZM249.785 410.086L239.787 397.073C254.667 403.55 271.09 407.141 288.35 407.141C306.55 407.141 323.818 403.148 339.328 395.99L328.499 410.086C326.294 412.956 322.884 414.637 319.269 414.637H259.556C255.896 414.637 251.963 412.922 249.785 410.086ZM416.379 341.045H396.722C405.378 324.278 410.266 305.246 410.266 285.071C410.266 278.403 409.732 271.86 408.705 265.482C408.798 265.481 408.897 265.48 409.003 265.479C409.118 265.478 409.24 265.477 409.368 265.477C410.319 265.472 411.603 265.477 412.944 265.515C414.288 265.554 415.671 265.626 416.824 265.754C417.401 265.818 417.904 265.894 418.307 265.983C418.732 266.076 418.966 266.166 419.061 266.221C420.642 267.147 421.702 268.863 421.702 270.827V335.715C421.702 338.66 419.318 341.045 416.379 341.045ZM168.434 285.071C168.434 218.756 222.124 165 288.35 165C354.577 165 408.266 218.756 408.266 285.071C408.266 351.385 354.577 405.141 288.35 405.141C222.124 405.141 168.434 351.385 168.434 285.071Z" fill="#254A98"/>
</g>
</g>
</svg>
