<svg width="100%" height="100%" viewBox="0 0 384 223" fill="none" xmlns="http://www.w3.org/2000/svg">
<path d="M267.108 40.4336H543.003M543.003 131.717H267.108" stroke="#254A98" stroke-width="2"/>
<path fill-rule="evenodd" clip-rule="evenodd" d="M82.9844 2H180.841C183.797 2 186.193 4.39601 186.193 7.35165C186.193 10.3073 183.797 12.7033 180.841 12.7033H145.371V12.252H143.371H124.125H122.125V12.7033H82.9844C80.0288 12.7033 77.6328 10.3073 77.6328 7.35165C77.6328 4.39601 80.0288 2 82.9844 2ZM122.125 14.7033H82.9844C78.9242 14.7033 75.6328 11.4119 75.6328 7.35165C75.6328 3.29144 78.9242 0 82.9844 0H180.841C184.901 0 188.193 3.29144 188.193 7.35165C188.193 11.4119 184.901 14.7033 180.841 14.7033H145.371V30.6328H161.616C163.546 30.6328 165.201 32.0106 165.55 33.9085L169.951 57.8125H237.131V59.8125H170.32L180.442 114.788H237.131V116.788H180.808C180.837 116.987 180.852 117.192 180.85 117.391C180.343 165.852 81.781 162.865 81.1417 117.459C81.1385 117.237 81.1569 117.009 81.1937 116.788H78.6903C72.5227 116.788 68.2033 117.844 65.1672 119.593C62.1567 121.327 60.3265 123.789 59.2104 126.782C58.0833 129.804 57.6855 133.367 57.5813 137.266C57.518 139.634 57.5623 142.054 57.6075 144.524C57.6374 146.155 57.6676 147.808 57.6676 149.483V150.483H56.6676H0.99939H-0.000610352V149.483C-0.000610352 112.639 6.73734 89.6952 17.7295 75.9543C28.7665 62.1575 43.9459 57.8125 60.3381 57.8125H94.1355L99.4126 33.7751C99.8154 31.9402 101.441 30.6328 103.32 30.6328H122.125V14.7033ZM145.371 32.6328V33.0816H143.371H124.125H122.125V32.6328H103.32C102.38 32.6328 101.568 33.2865 101.366 34.204L83.1851 117.02C83.1543 117.16 83.1397 117.305 83.1415 117.431C83.2895 127.945 89.0699 136.086 97.9888 141.729C106.948 147.397 118.963 150.447 131.075 150.625C143.19 150.804 155.173 148.106 164.087 142.535C172.935 137.005 178.732 128.687 178.85 117.37C178.851 117.26 178.841 117.135 178.819 117.018L163.583 34.2706C163.408 33.3217 162.581 32.6328 161.616 32.6328H145.371ZM124.125 30.6328V14.7033H143.371V30.6328H124.125ZM93.6965 59.8125L81.6274 114.788H78.6903C72.3172 114.788 67.6134 115.876 64.1689 117.86C60.6988 119.859 58.5909 122.719 57.3365 126.083C56.0931 129.417 55.6881 133.243 55.582 137.213C55.518 139.607 55.5635 142.126 55.609 144.644C55.6322 145.929 55.6554 147.214 55.6641 148.483H2.00107C2.12231 112.402 8.81616 90.2982 19.2913 77.2037C29.8182 64.0445 44.3081 59.8125 60.3381 59.8125H93.6965ZM241.132 38.7582H263.719C264.823 38.7582 265.719 39.6537 265.719 40.7582V130.78C265.719 131.885 264.823 132.78 263.719 132.78H241.132C240.027 132.78 239.132 131.885 239.132 130.78V40.7582C239.132 39.6537 240.027 38.7582 241.132 38.7582ZM263.719 36.7582C265.928 36.7582 267.719 38.5491 267.719 40.7582V130.78C267.719 132.989 265.928 134.78 263.719 134.78H241.132C238.923 134.78 237.132 132.989 237.132 130.78V40.7582C237.132 38.5491 238.923 36.7582 241.132 36.7582H263.719Z" fill="#254A98"/>
<path d="M11.7896 205.233C11.7896 214.494 19.286 221.999 28.5301 221.999C37.7742 221.999 45.2705 214.494 45.2705 205.233C45.2705 202.355 44.2169 198.32 42.5596 193.799C40.9132 189.307 38.7123 184.441 36.5026 179.939C34.2943 175.44 32.085 171.321 30.4271 168.326C29.6566 166.934 29.0057 165.785 28.5301 164.955C28.0544 165.785 27.4035 166.934 26.6331 168.326C24.9752 171.321 22.7658 175.44 20.5575 179.939C18.3479 184.441 16.1469 189.307 14.5005 193.799C12.8432 198.32 11.7896 202.355 11.7896 205.233Z" stroke="#254A98" stroke-width="2"/>
</svg>
