<svg width="100%" height="100%" viewBox="0 0 486 223" fill="none" xmlns="http://www.w3.org/2000/svg">
<path d="M217.895 40.4336H-57.9999M-57.9999 131.717H217.895" stroke="#254A98" stroke-width="2"/>
<path fill-rule="evenodd" clip-rule="evenodd" d="M402.018 2H304.161C301.205 2 298.809 4.39601 298.809 7.35165C298.809 10.3073 301.205 12.7033 304.161 12.7033H339.631V12.252H341.631H360.877H362.877V12.7033H402.018C404.973 12.7033 407.369 10.3073 407.369 7.35165C407.369 4.39601 404.973 2 402.018 2ZM362.877 14.7033H402.018C406.078 14.7033 409.369 11.4119 409.369 7.35165C409.369 3.29144 406.078 0 402.018 0H304.161C300.101 0 296.809 3.29144 296.809 7.35165C296.809 11.4119 300.101 14.7033 304.161 14.7033H339.631V30.6328H323.386C321.456 30.6328 319.801 32.0106 319.452 33.9085L315.051 57.8125H247.871V59.8125H314.682L304.56 114.788H247.871V116.788H304.194C304.165 116.987 304.15 117.192 304.152 117.391C304.659 165.852 403.221 162.865 403.86 117.459C403.863 117.237 403.845 117.009 403.808 116.788H406.312C412.479 116.788 416.799 117.844 419.835 119.593C422.845 121.327 424.675 123.789 425.792 126.782C426.919 129.804 427.316 133.367 427.421 137.266C427.484 139.634 427.44 142.054 427.394 144.524C427.365 146.155 427.334 147.808 427.334 149.483V150.483H428.334H484.003H485.003V149.483C485.003 112.639 478.265 89.6952 467.272 75.9543C456.235 62.1575 441.056 57.8125 424.664 57.8125H390.866L385.589 33.7751C385.187 31.9402 383.561 30.6328 381.682 30.6328H362.877V14.7033ZM339.631 32.6328V33.0816H341.631H360.877H362.877V32.6328H381.682C382.622 32.6328 383.434 33.2865 383.636 34.204L401.817 117.02C401.848 117.16 401.862 117.305 401.86 117.431C401.712 127.945 395.932 136.086 387.013 141.729C378.054 147.397 366.039 150.447 353.927 150.625C341.812 150.804 329.829 148.106 320.915 142.535C312.067 137.005 306.27 128.687 306.152 117.37C306.151 117.26 306.161 117.135 306.183 117.018L321.419 34.2706C321.594 33.3217 322.421 32.6328 323.386 32.6328H339.631ZM360.877 30.6328V14.7033H341.631V30.6328H360.877ZM391.305 59.8125L403.375 114.788H406.312C412.685 114.788 417.389 115.876 420.833 117.86C424.303 119.859 426.411 122.719 427.665 126.083C428.909 129.417 429.314 133.243 429.42 137.213C429.484 139.607 429.438 142.126 429.393 144.644C429.37 145.929 429.347 147.214 429.338 148.483H483.001C482.88 112.402 476.186 90.2982 465.711 77.2037C455.184 64.0445 440.694 59.8125 424.664 59.8125H391.305ZM243.87 38.7582H221.283C220.179 38.7582 219.283 39.6537 219.283 40.7582V130.78C219.283 131.885 220.179 132.78 221.283 132.78H243.87C244.975 132.78 245.87 131.885 245.87 130.78V40.7582C245.87 39.6537 244.975 38.7582 243.87 38.7582ZM221.283 36.7582C219.074 36.7582 217.283 38.5491 217.283 40.7582V130.78C217.283 132.989 219.074 134.78 221.283 134.78H243.87C246.079 134.78 247.87 132.989 247.87 130.78V40.7582C247.87 38.5491 246.079 36.7582 243.87 36.7582H221.283Z" fill="#254A98"/>
<path d="M473.213 205.233C473.213 214.494 465.717 221.999 456.473 221.999C447.229 221.999 439.732 214.494 439.732 205.233C439.732 202.355 440.786 198.32 442.443 193.799C444.09 189.307 446.291 184.441 448.5 179.939C450.709 175.44 452.918 171.321 454.576 168.326C455.346 166.934 455.997 165.785 456.473 164.955C456.949 165.785 457.599 166.934 458.37 168.326C460.028 171.321 462.237 175.44 464.445 179.939C466.655 184.441 468.856 189.307 470.502 193.799C472.16 198.32 473.213 202.355 473.213 205.233Z" stroke="#254A98" stroke-width="2"/>
</svg>
